<svg width="15" height="12" viewBox="0 0 15 12" fill="none" xmlns="http://www.w3.org/2000/svg">
<path d="M3.19953 0.242152C3.1358 0.170889 3.05845 0.112882 2.97195 0.071493C2.88546 0.0301043 2.79154 0.00615716 2.69565 0.00103955C2.59976 -0.00407806 2.5038 0.00973563 2.41332 0.04168C2.32285 0.0736244 2.23967 0.123064 2.1686 0.187134C2.09754 0.251203 2.03999 0.328628 1.99931 0.414922C1.95863 0.501215 1.93562 0.59466 1.93161 0.689841C1.9276 0.785021 1.94267 0.880045 1.97596 0.969404C2.00924 1.05876 2.06007 1.14068 2.12551 1.21041L3.09309 2.26925C1.00976 3.64544 0.10567 5.62035 0.062129 5.71333C0.0211596 5.80548 0 5.90508 0 6.00579C0 6.1065 0.0211596 6.2061 0.062129 6.29824C0.0845044 6.34744 0.614258 7.51366 1.78504 8.67449C3.35011 10.2253 5.32338 11.0447 7.50045 11.0447C8.55853 11.0505 9.60712 10.8466 10.5846 10.4448L11.7996 11.7706C11.9297 11.9093 12.1096 11.9915 12.3004 11.9994C12.4912 12.0073 12.6775 11.9403 12.8188 11.8129C12.9601 11.6855 13.0451 11.5079 13.0554 11.3188C13.0656 11.1296 13.0003 10.9441 12.8736 10.8024L3.19953 0.242152ZM7.50045 9.60495C5.71102 9.60495 4.14595 8.96124 2.84938 7.69243C2.33938 7.19148 1.90053 6.62395 1.54496 6.00549C1.86365 5.44697 2.68127 4.21176 4.08487 3.34849L9.53299 9.29419C8.87596 9.50231 8.19016 9.60716 7.50045 9.60495ZM14.9388 6.29824C14.917 6.34684 14.3945 7.49806 13.2455 8.64749C13.1797 8.71994 13.0998 8.77838 13.0105 8.81925C12.9213 8.86012 12.8246 8.88258 12.7263 8.88527C12.628 8.88795 12.5303 8.8708 12.4389 8.83486C12.3475 8.79892 12.2644 8.74494 12.1947 8.67619C12.125 8.60744 12.0701 8.52535 12.0333 8.43492C11.9966 8.34448 11.9787 8.24757 11.9808 8.15008C11.9829 8.05259 12.005 7.95654 12.0457 7.86777C12.0864 7.77899 12.1448 7.69934 12.2174 7.63364C12.7001 7.14683 13.1165 6.59947 13.4559 6.00549C13.1006 5.38689 12.6617 4.81933 12.1515 4.31854C10.8543 3.04973 9.28988 2.40603 7.50045 2.40603C7.29786 2.40603 7.09527 2.41443 6.89571 2.43122C6.79954 2.44144 6.70228 2.43249 6.60965 2.40489C6.51702 2.37729 6.43088 2.3316 6.35631 2.2705C6.28173 2.2094 6.22022 2.13413 6.17539 2.04912C6.13055 1.9641 6.10331 1.87105 6.09524 1.77544C6.08718 1.67982 6.09847 1.58357 6.12844 1.49235C6.15841 1.40112 6.20646 1.31676 6.26977 1.24423C6.33308 1.17169 6.41036 1.11243 6.49709 1.06995C6.58381 1.02747 6.67822 1.00261 6.77476 0.996839C7.01243 0.976442 7.25856 0.966244 7.50045 0.966244C9.67752 0.966244 11.6508 1.78632 13.2147 3.33709C14.3848 4.49791 14.9146 5.66474 14.937 5.71333C14.9782 5.80535 14.9997 5.90489 15 6.0056C15.0003 6.10631 14.9795 6.20598 14.9388 6.29824Z" fill="#7F85B0"/>
</svg>
