<svg width="31" height="31" viewBox="0 0 31 31" fill="none" xmlns="http://www.w3.org/2000/svg">
<path d="M30.3427 12.3199H29.1087V12.2563H15.3204V18.3844H23.9787C22.7155 21.9518 19.3213 24.5126 15.3204 24.5126C10.244 24.5126 6.12814 20.3968 6.12814 15.3204C6.12814 10.244 10.244 6.12814 15.3204 6.12814C17.6636 6.12814 19.7954 7.01213 21.4186 8.45607L25.752 4.12271C23.0158 1.57263 19.3557 0 15.3204 0C6.85969 0 0 6.85969 0 15.3204C0 23.781 6.85969 30.6407 15.3204 30.6407C23.781 30.6407 30.6407 23.781 30.6407 15.3204C30.6407 14.2931 30.535 13.2904 30.3427 12.3199Z" fill="#FFC107"/>
<path d="M15.3225 30.6412C19.2798 30.6412 22.8755 29.1268 25.5941 26.664L20.8524 22.6516C19.2626 23.8607 17.3199 24.5146 15.3225 24.513C11.3377 24.513 7.95421 21.9722 6.67956 18.4263L1.68359 22.2755C4.21911 27.237 9.36828 30.6412 15.3225 30.6412Z" fill="#4CAF50"/>
<path d="M30.3427 12.3209H29.1086V12.2573H15.3203V18.3855H23.9786C23.3744 20.0833 22.286 21.5669 20.8479 22.6529L20.8502 22.6514L25.5918 26.6638C25.2563 26.9687 30.6407 22.9816 30.6407 15.3214C30.6407 14.2942 30.535 13.2914 30.3427 12.3209Z" fill="#1976D2"/>
<path d="M1.77344 8.18949L6.80694 11.8809C8.16892 8.50892 11.4674 6.12814 15.3274 6.12814C17.6706 6.12814 19.8024 7.01213 21.4256 8.45607L25.759 4.12271C23.0228 1.57263 19.3627 0 15.3274 0C9.44281 0 4.3396 3.32222 1.77344 8.18949Z" fill="#FF3D00"/>
</svg>
