<svg width="15" height="15" viewBox="0 0 15 15" fill="none" xmlns="http://www.w3.org/2000/svg">
<path d="M14.2472 1.80988L14.7795 1.28508C14.9207 1.14391 15 0.952433 15 0.752782C15 0.553132 14.9207 0.361659 14.7795 0.220485C14.6383 0.0793108 14.4469 0 14.2472 0C14.0476 0 13.8561 0.0793108 13.7149 0.220485L12.6653 1.27758L10.5436 3.39928L5.81292 8.12248C5.03775 7.61105 4.10033 7.40558 3.1823 7.54587C2.26427 7.68616 1.43101 8.16223 0.843955 8.88183C0.256903 9.60143 -0.0421319 10.5133 0.0047915 11.4408C0.0517149 12.3683 0.441256 13.2454 1.09794 13.9021C1.75461 14.5587 2.63168 14.9483 3.55917 14.9952C4.48667 15.0421 5.39857 14.7431 6.11817 14.156C6.83777 13.569 7.31384 12.7357 7.45413 11.8177C7.59442 10.8997 7.38895 9.96225 6.87752 9.18707L11.0684 4.98867L12.6578 6.58556C12.7277 6.65497 12.8106 6.70994 12.9018 6.74731C12.9929 6.78469 13.0905 6.80375 13.189 6.8034C13.2875 6.80305 13.385 6.7833 13.4759 6.74528C13.5668 6.70726 13.6493 6.65172 13.7187 6.58182C13.7881 6.51191 13.843 6.42902 13.8804 6.33788C13.9178 6.24674 13.9369 6.14912 13.9365 6.05062C13.9362 5.95211 13.9164 5.85463 13.8784 5.76375C13.8404 5.67288 13.7848 5.59038 13.7149 5.52097L12.1255 3.93157L13.1901 2.87448L13.7149 3.39928C13.7843 3.46918 13.8668 3.52472 13.9577 3.56274C14.0486 3.60076 14.1461 3.62051 14.2446 3.62086C14.3431 3.62121 14.4407 3.60215 14.5318 3.56477C14.623 3.5274 14.7059 3.47243 14.7758 3.40302C14.8457 3.33361 14.9012 3.25112 14.9392 3.16024C14.9773 3.06936 14.997 2.97189 14.9973 2.87338C14.9977 2.77487 14.9786 2.67726 14.9413 2.58611C14.9039 2.49497 14.8489 2.41208 14.7795 2.34218L14.2472 1.80988ZM3.75121 13.4979C3.30637 13.4979 2.87152 13.366 2.50165 13.1189C2.13178 12.8717 1.8435 12.5205 1.67327 12.1095C1.50304 11.6985 1.4585 11.2463 1.54528 10.81C1.63206 10.3737 1.84627 9.97295 2.16082 9.65841C2.47537 9.34386 2.87613 9.12965 3.31242 9.04286C3.74871 8.95608 4.20094 9.00062 4.61192 9.17085C5.0229 9.34108 5.37417 9.62936 5.6213 9.99923C5.86844 10.3691 6.00035 10.804 6.00035 11.2488C6.00035 11.8453 5.76339 12.4174 5.34159 12.8392C4.9198 13.261 4.34772 13.4979 3.75121 13.4979Z" fill="#7F85B0"/>
</svg>
