<svg width="15" height="15" viewBox="0 0 15 15" fill="none" xmlns="http://www.w3.org/2000/svg">
<path d="M14.915 14.0873C13.8177 12.1146 12.1268 10.7001 10.1535 10.0295C11.1296 9.42526 11.8879 8.50449 12.3121 7.40862C12.7363 6.31276 12.8028 5.10239 12.5015 3.9634C12.2001 2.82441 11.5476 1.81978 10.6441 1.10378C9.74053 0.387776 8.63597 0 7.5 0C6.36403 0 5.25947 0.387776 4.35594 1.10378C3.45241 1.81978 2.79987 2.82441 2.49853 3.9634C2.1972 5.10239 2.26373 6.31276 2.6879 7.40862C3.11208 8.50449 3.87045 9.42526 4.84655 10.0295C2.87322 10.6993 1.1823 12.1138 0.0850403 14.0873C0.0448019 14.1555 0.0181121 14.2314 0.0065455 14.3106C-0.00502106 14.3897 -0.00123002 14.4704 0.0176949 14.548C0.0366199 14.6256 0.0702954 14.6984 0.116735 14.7623C0.163174 14.8261 0.221436 14.8796 0.288083 14.9196C0.354731 14.9597 0.428414 14.9854 0.504785 14.9954C0.581156 15.0053 0.658668 14.9992 0.732748 14.9775C0.806828 14.9558 0.875975 14.9189 0.936109 14.8689C0.996244 14.819 1.04615 14.757 1.08288 14.6866C2.44022 12.2472 4.83935 10.7907 7.5 10.7907C10.1607 10.7907 12.5598 12.2472 13.9171 14.6866C13.9539 14.757 14.0038 14.819 14.0639 14.8689C14.124 14.9189 14.1932 14.9558 14.2673 14.9775C14.3413 14.9992 14.4188 15.0053 14.4952 14.9954C14.5716 14.9854 14.6453 14.9597 14.7119 14.9196C14.7786 14.8796 14.8368 14.8261 14.8833 14.7623C14.9297 14.6984 14.9634 14.6256 14.9823 14.548C15.0012 14.4704 15.005 14.3897 14.9935 14.3106C14.9819 14.2314 14.9552 14.1555 14.915 14.0873ZM3.46543 5.39639C3.46543 4.56657 3.70206 3.7554 4.14538 3.06543C4.5887 2.37547 5.21882 1.83771 5.95604 1.52015C6.69326 1.2026 7.50448 1.11951 8.28711 1.2814C9.06974 1.44329 9.78863 1.84288 10.3529 2.42965C10.9171 3.01641 11.3014 3.764 11.457 4.57786C11.6127 5.39173 11.5328 6.23533 11.2275 7.00197C10.9221 7.76862 10.405 8.42388 9.74149 8.8849C9.07801 9.34592 8.29796 9.59199 7.5 9.59199C6.43032 9.5908 5.40477 9.14838 4.64839 8.36181C3.89201 7.57524 3.46658 6.50876 3.46543 5.39639Z" fill="#7F85B0"/>
</svg>
